<svg xmlns="http://www.w3.org/2000/svg" viewBox="200 218 620 620">
  <g transform="translate(0,1024) scale(0.1,-0.1)" fill="#946652">
    <path d="M3744 7283 c-49 -31 -116 -77 -149 -101 -580 -439 -922 -1036 -1016 -1772 -17 -129 -17 -461 -1 -595 83 -681 419 -1287 949 -1713 322 -259 725 -446 1092 -507 385 -65 755 117 917 450 129 267 119 568 -31 870 -220 445 -756 668 -1240 518 -98 -31 -202 -83 -250 -124 -45 -40 -50 -96 -10 -133 47 -44 69 -42 175 13 215 111 436 131 660 59 221 -71 398 -224 501 -433 67 -137 91 -232 91 -370 1 -307 -160 -539 -441 -639 -79 -28 -97 -30 -211 -30 -143 0 -231 18 -445 91 -220 75 -401 181 -534 312 -373 368 -477 968 -247 1436 66 134 127 216 239 320 107 100 204 159 404 245 314 134 451 213 581 336 l73 69 -40 78 c-23 43 -41 85 -41 93 0 7 -1 14 -3 14 -2 0 -46 -42 -98 -93 -135 -133 -235 -191 -584 -337 -55 -23 -140 -64 -189 -92 l-90 -50 -23 28 c-26 33 -53 113 -53 158 0 54 20 106 56 145 54 61 127 87 301 110 176 23 264 54 355 126 136 106 228 285 228 441 0 43 -4 50 -74 123 -67 70 -76 85 -96 152 -33 116 -51 160 -87 218 -70 110 -178 190 -331 245 l-87 31 -17 145 c-9 80 -17 151 -17 158 -1 7 -12 24 -26 37 -41 42 -86 34 -191 -32z m46 -205 c1 -2 7 -52 14 -112 17 -133 29 -149 137 -177 218 -57 325 -159 373 -353 23 -93 56 -155 116 -215 l51 -51 -11 -42 c-24 -88 -100 -189 -177 -235 -59 -34 -114 -49 -229 -63 -198 -23 -327 -73 -410 -162 -86 -92 -127 -228 -106 -354 10 -59 60 -179 94 -226 10 -15 4 -26 -48 -80 -128 -134 -216 -281 -279 -472 -54 -159 -69 -265 -69 -466 1 -182 16 -287 63 -442 l20 -63 -40 45 c-71 80 -218 307 -283 438 -171 342 -248 670 -249 1057 -1 453 106 852 331 1233 108 181 211 314 361 462 142 142 338 301 341 278z"/>
    <path d="M5798 7194 c-300 -46 -550 -209 -723 -469 -132 -198 -195 -405 -195 -639 0 -219 58 -377 183 -500 84 -83 146 -119 253 -146 98 -25 180 -25 278 0 361 92 509 500 360 989 -32 106 -79 212 -101 229 -9 6 -35 12 -58 12 -70 0 -112 -60 -85 -124 75 -184 110 -334 110 -478 0 -169 -41 -281 -135 -367 -70 -65 -124 -84 -230 -85 -78 -1 -98 3 -147 26 -113 53 -186 147 -223 289 -27 100 -17 306 20 419 91 282 286 507 522 601 332 133 715 63 951 -173 30 -29 79 -91 110 -138 118 -176 126 -180 597 -317 l200 -58 -4 -44 c-12 -177 -130 -379 -278 -477 -114 -76 -215 -105 -457 -135 -292 -36 -423 -89 -566 -229 -320 -313 -454 -905 -385 -1700 25 -289 13 -432 -50 -610 -34 -95 -81 -179 -150 -271 -65 -86 -72 -129 -29 -173 34 -34 74 -34 203 -1 805 204 1488 837 1766 1635 45 131 90 306 109 430 20 128 36 321 29 351 -8 32 -39 66 -69 73 -30 8 -89 -16 -102 -41 -6 -10 -15 -73 -22 -138 -45 -490 -193 -882 -475 -1260 -215 -287 -496 -523 -824 -689 -107 -55 -296 -136 -315 -136 -2 0 11 37 31 82 49 117 82 253 95 393 10 103 8 164 -12 435 -23 333 -23 446 6 666 60 468 218 788 453 913 84 45 136 57 331 81 91 11 203 30 249 40 378 90 624 384 657 785 5 63 3 88 -9 111 -32 61 -51 70 -347 155 -382 110 -398 118 -468 229 -100 158 -212 260 -385 350 -201 105 -433 141 -669 104z"/>
  </g>
</svg>
